# xmcd CD database file
#
# Track frame offsets:
#	150
#	24866
#	49280
#	74756
#	90779
#
# Disc length: 1381 seconds
#
# Revision: 0
# Processed by: cddbd v1.5.1PL2 Copyright (c) Steve Scherf et al.
# Submitted via: CDex 1.51
#
DISCID=37056305
DTITLE=Groove Confusion - Groove Confusion
DYEAR=1900
DGENRE=Jazz
TTITLE0=Who's been talking
TTITLE1=Sunny
TTITLE2=The dancer
TTITLE3=Everybody needs somebody
TTITLE4=I feel good
EXTD=
EXTT0=
EXTT1=
EXTT2=
EXTT3=
EXTT4=
PLAYORDER=
